<svg aria-hidden="true" style="position: absolute; width: 0; height: 0; overflow: hidden;" version="1.1" xmlns="http://www.w3.org/2000/svg" xmlns:xlink="http://www.w3.org/1999/xlink">
<defs>
<symbol id="icon-logo-4" viewBox="0 0 43 32">
<path d="M11.843 11.234c0.012 0.176-0.024 0.346-0.105 0.51-0.070 0.164-0.135 0.311-0.193 0.44l-0.563 0.598-0.334 1.002c-0.129 0.094-0.27 0.188-0.422 0.281-0.141 0.082-0.27 0.17-0.387 0.264-0.129 0.105-0.246 0.223-0.352 0.352-0.094 0.129-0.199 0.24-0.316 0.334s-0.258 0.176-0.422 0.246c-0.152 0.059-0.293 0.129-0.422 0.211-0.234 0.141-0.457 0.287-0.668 0.44-0.199 0.152-0.41 0.299-0.633 0.439-0.059 0.023-0.105 0.053-0.141 0.088-0.023 0.023-0.064 0.047-0.123 0.070-0.035 0.023-0.188 0.070-0.457 0.141s-0.568 0.152-0.896 0.246c-0.316 0.082-0.615 0.158-0.896 0.229s-0.439 0.105-0.475 0.105c-0.211 0.023-0.428 0.035-0.65 0.035s-0.445 0.006-0.668 0.017l-0.264 0.158c-0.129-0.094-0.27-0.182-0.422-0.264s-0.281-0.17-0.387-0.264c-0.117-0.105-0.234-0.223-0.352-0.352-0.117-0.141-0.223-0.27-0.316-0.387-0.059-0.164-0.117-0.322-0.176-0.475-0.059-0.164-0.105-0.322-0.141-0.475l-0.088-0.668c-0.023-0.223-0.047-0.439-0.070-0.65-0.012-0.211-0.029-0.428-0.053-0.65 0.199-0.551 0.375-1.102 0.527-1.652 0.164-0.563 0.363-1.113 0.598-1.652 0.059-0.129 0.111-0.258 0.158-0.387 0.059-0.141 0.117-0.275 0.176-0.404 0.070-0.141 0.146-0.27 0.229-0.387 0.082-0.129 0.152-0.258 0.211-0.387 0.059-0.141 0.105-0.281 0.141-0.422 0.035-0.152 0.082-0.293 0.141-0.422 0.035-0.070 0.094-0.17 0.176-0.299 0.082-0.141 0.17-0.281 0.264-0.422 0.094-0.152 0.182-0.299 0.264-0.439 0.094-0.141 0.17-0.252 0.229-0.334 0.094-0.117 0.188-0.229 0.281-0.334s0.17-0.223 0.228-0.352c0.117-0.199 0.229-0.451 0.334-0.756s0.223-0.574 0.352-0.809c0.141-0.258 0.305-0.498 0.492-0.721 0.199-0.234 0.381-0.475 0.545-0.721 0.176-0.246 0.346-0.516 0.51-0.809l0.773-0.563 0.352 0.352 0.844-0.141 0.527 0.791c-0.023 0.176-0.053 0.375-0.088 0.598-0.023 0.223-0.047 0.451-0.070 0.686-0.012 0.223-0.023 0.445-0.035 0.668 0 0.211 0.012 0.398 0.035 0.563-0.059 0.211-0.146 0.434-0.264 0.668-0.105 0.223-0.229 0.416-0.369 0.58l-0.070 0.949-0.703 0.633-0.088 0.897-0.598 0.703c-0.035 0.164-0.070 0.334-0.105 0.51-0.035 0.164-0.082 0.322-0.141 0.475-0.059 0.141-0.129 0.287-0.211 0.439-0.082 0.141-0.164 0.287-0.246 0.439-0.234 0.199-0.475 0.422-0.721 0.668s-0.469 0.492-0.668 0.738c-0.105 0.129-0.205 0.27-0.299 0.422-0.082 0.141-0.17 0.275-0.264 0.404-0.305 0.387-0.633 0.75-0.984 1.090s-0.697 0.691-1.037 1.055l0.387 0.685c0.246 0.082 0.498 0.158 0.756 0.229s0.516 0.135 0.773 0.193c0.117-0.023 0.252-0.047 0.404-0.070 0.152-0.035 0.311-0.070 0.475-0.105 0.164-0.047 0.322-0.094 0.475-0.141 0.164-0.047 0.299-0.094 0.404-0.141 0.234-0.094 0.504-0.229 0.809-0.404 0.305-0.188 0.563-0.352 0.773-0.492 0.375-0.234 0.756-0.475 1.143-0.721s0.756-0.504 1.107-0.774c0.234-0.176 0.48-0.398 0.738-0.668s0.498-0.521 0.721-0.756c0.234-0.246 0.44-0.445 0.615-0.598 0.188-0.152 0.316-0.211 0.387-0.176zM7.062 2.92c-0.246 0.41-0.51 0.809-0.791 1.195-0.27 0.375-0.521 0.768-0.756 1.178-0.082 0.141-0.152 0.287-0.211 0.439-0.059 0.141-0.135 0.281-0.229 0.422-0.082 0.129-0.17 0.258-0.264 0.387s-0.176 0.27-0.246 0.422c-0.141 0.27-0.27 0.557-0.387 0.861-0.105 0.293-0.223 0.58-0.352 0.861-0.141 0.281-0.305 0.545-0.492 0.791s-0.357 0.51-0.51 0.791l-0.281 0.563c-0.023 0.059-0.047 0.105-0.070 0.141-0.023 0.023-0.047 0.065-0.070 0.123-0.047 0.129-0.070 0.27-0.070 0.422s-0.018 0.293-0.053 0.422c-0.035 0.141-0.088 0.275-0.158 0.404s-0.135 0.258-0.193 0.387c-0.059 0.129-0.105 0.264-0.141 0.404-0.035 0.129-0.076 0.258-0.123 0.387 0.094-0.094 0.193-0.176 0.299-0.246 0.117-0.082 0.228-0.17 0.334-0.264 0.105-0.105 0.205-0.217 0.299-0.334s0.199-0.223 0.316-0.316c0.105-0.094 0.217-0.176 0.334-0.246 0.129-0.082 0.252-0.164 0.369-0.246 0.188-0.258 0.352-0.521 0.492-0.791 0.070-0.129 0.129-0.275 0.176-0.44 0.059-0.164 0.129-0.31 0.211-0.439 0.070-0.129 0.158-0.252 0.264-0.369 0.117-0.117 0.217-0.24 0.299-0.369 0.094-0.129 0.17-0.264 0.229-0.404 0.070-0.141 0.146-0.275 0.229-0.404 0.164-0.258 0.346-0.504 0.545-0.738l0.088-1.107 0.633-0.738 0.088-0.668 0.439-0.615 0.053-0.984-0.299-0.879zM21.528 11.48c0.047 0.176 0.029 0.328-0.053 0.457-0.082 0.117-0.193 0.223-0.334 0.316-0.129 0.094-0.275 0.182-0.439 0.264-0.152 0.070-0.281 0.152-0.387 0.246-0.527 0.117-1.008 0.205-1.441 0.264-0.422 0.047-0.891 0.111-1.406 0.193-0.152 0.023-0.299 0.023-0.439 0-0.129-0.035-0.264-0.047-0.404-0.035-0.082 0-0.158 0-0.229 0-0.070-0.012-0.141-0.012-0.211 0-0.27 0.024-0.445 0.117-0.527 0.281-0.082 0.152-0.152 0.334-0.211 0.545-0.047 0.199-0.111 0.393-0.193 0.58-0.070 0.176-0.229 0.299-0.475 0.369-0.023 0.059-0.018 0.111 0.018 0.158 0.047 0.047 0.082 0.088 0.105 0.123-0.199 0.059-0.334 0.164-0.404 0.316-0.059 0.152-0.111 0.305-0.158 0.457s-0.117 0.281-0.211 0.387c-0.082 0.105-0.246 0.141-0.492 0.105-0.363 0.387-0.791 0.697-1.283 0.932-0.492 0.246-1.002 0.404-1.529 0.475-0.094-0.047-0.188-0.105-0.281-0.176-0.082-0.070-0.17-0.135-0.264-0.193-0.082-0.059-0.176-0.105-0.281-0.141-0.094-0.023-0.205-0.023-0.334 0-0.012-0.246-0.059-0.475-0.141-0.686-0.094-0.211-0.211-0.41-0.352-0.598-0.023-0.211 0.006-0.404 0.088-0.58 0.070-0.188 0.146-0.369 0.229-0.545s0.152-0.352 0.211-0.527c0.047-0.188 0.035-0.399-0.035-0.633 0.117-0.070 0.193-0.152 0.229-0.246 0.047-0.094 0.076-0.188 0.088-0.281 0.023-0.105 0.053-0.199 0.088-0.281 0.035-0.094 0.117-0.17 0.246-0.229-0.094-0.281-0.082-0.486 0.035-0.615 0.129-0.141 0.281-0.264 0.457-0.369s0.34-0.223 0.492-0.352c0.152-0.129 0.211-0.322 0.176-0.58 0.070-0.070 0.152-0.129 0.246-0.176s0.182-0.088 0.264-0.123c0.094-0.047 0.182-0.094 0.264-0.141s0.158-0.111 0.229-0.193c-0.082-0.059-0.123-0.117-0.123-0.176 0.012-0.059 0.029-0.117 0.053-0.176 0.023-0.070 0.047-0.141 0.070-0.211 0.035-0.070 0.035-0.141 0-0.211 0.316 0.047 0.592 0.006 0.826-0.123 0.246-0.141 0.475-0.281 0.685-0.422 0.223-0.141 0.445-0.24 0.668-0.299s0.48 0.012 0.773 0.211c0.023 0.082 0.059 0.205 0.105 0.369 0.059 0.152 0.111 0.311 0.158 0.475 0.059 0.164 0.111 0.322 0.158 0.475s0.076 0.264 0.088 0.334c0 0.059 0 0.152 0 0.281s0 0.27 0 0.422c0 0.141 0 0.275 0 0.404s0 0.229 0 0.299c0.34 0.199 0.68 0.322 1.020 0.369 0.34 0.035 0.68-0.047 1.020-0.246 0.129 0.117 0.252 0.152 0.369 0.105 0.117-0.059 0.229-0.123 0.334-0.193 0.117-0.070 0.234-0.105 0.352-0.105 0.117-0.012 0.234 0.082 0.352 0.281 0.164-0.152 0.334-0.246 0.51-0.281 0.176-0.047 0.357-0.070 0.545-0.070 0.188-0.012 0.369-0.029 0.545-0.053 0.188-0.024 0.369-0.1 0.545-0.229zM14.778 11.779c0-0.176 0.029-0.363 0.088-0.563s0.105-0.393 0.141-0.58c0.035-0.199 0.029-0.387-0.018-0.563-0.035-0.176-0.146-0.334-0.334-0.475-0.129 0.070-0.234 0.17-0.316 0.299-0.082 0.117-0.164 0.24-0.246 0.369-0.082 0.117-0.182 0.217-0.299 0.299-0.105 0.082-0.246 0.105-0.422 0.070-0.059 0.141-0.059 0.258 0 0.352 0.059 0.082 0.129 0.164 0.211 0.246 0.082 0.070 0.158 0.146 0.229 0.229 0.082 0.082 0.111 0.188 0.088 0.316 0.047 0.035 0.111 0.070 0.193 0.105 0.082 0.023 0.164 0.041 0.246 0.053 0.094 0 0.182-0.012 0.264-0.035s0.141-0.064 0.176-0.123zM14.655 13.185c-0.234 0-0.44-0.053-0.615-0.158-0.164-0.117-0.334-0.246-0.51-0.387-0.164-0.141-0.34-0.27-0.527-0.387-0.176-0.129-0.393-0.205-0.65-0.229-0.105 0.141-0.229 0.275-0.369 0.404-0.141 0.117-0.264 0.246-0.369 0.387s-0.182 0.293-0.229 0.457c-0.035 0.164-0.006 0.352 0.088 0.563-0.27 0.129-0.451 0.316-0.545 0.563-0.094 0.234-0.158 0.492-0.193 0.774-0.024 0.281-0.047 0.563-0.070 0.844s-0.1 0.533-0.229 0.756l0.387-0.264c0.047 0.023 0.082 0.059 0.105 0.105 0.035 0.047 0.041 0.1 0.018 0.158 0.094-0.094 0.199-0.164 0.316-0.211 0.117-0.058 0.234-0.1 0.352-0.123 0.129-0.035 0.252-0.064 0.369-0.088 0.129-0.023 0.252-0.059 0.369-0.105 0.293 0.164 0.504 0.199 0.633 0.105s0.234-0.234 0.316-0.422c0.082-0.188 0.17-0.381 0.264-0.58 0.094-0.211 0.246-0.34 0.457-0.387l-0.123-0.123c0.199-0.246 0.375-0.498 0.527-0.756 0.164-0.27 0.24-0.568 0.229-0.896zM31.917 11.973c-0.129 0.164-0.229 0.346-0.299 0.545s-0.158 0.387-0.264 0.563c-0.094 0.176-0.217 0.322-0.369 0.439-0.141 0.117-0.34 0.17-0.598 0.158-0.188 0.070-0.328 0.199-0.422 0.387-0.082 0.176-0.164 0.357-0.246 0.545-0.082 0.176-0.188 0.322-0.316 0.439-0.129 0.105-0.322 0.117-0.58 0.035-0.328 0.141-0.627 0.328-0.896 0.563-0.258 0.223-0.504 0.457-0.738 0.703-0.082 0.082-0.176 0.188-0.281 0.316-0.105 0.117-0.205 0.205-0.299 0.264-0.082 0.047-0.164 0.053-0.246 0.018s-0.158-0.070-0.229-0.105c-0.070-0.047-0.141-0.070-0.211-0.070-0.059 0-0.111 0.053-0.158 0.158 0.082 0.164 0.1 0.275 0.053 0.334-0.047 0.070-0.123 0.123-0.229 0.158s-0.217 0.064-0.334 0.088c-0.117 0.023-0.211 0.064-0.281 0.123-0.141 0.129-0.24 0.287-0.299 0.475s-0.111 0.375-0.158 0.563c-0.047 0.188-0.117 0.363-0.211 0.527-0.082 0.176-0.223 0.311-0.422 0.404 0.117 0.082 0.164 0.164 0.141 0.246-0.012 0.082-0.041 0.164-0.088 0.246-0.047 0.094-0.082 0.182-0.105 0.264-0.012 0.082 0.035 0.164 0.141 0.246-0.176 0.223-0.334 0.463-0.475 0.721-0.129 0.258-0.258 0.516-0.387 0.773-0.129 0.27-0.27 0.527-0.422 0.773-0.141 0.258-0.322 0.486-0.545 0.686l0.053 0.422c-0.176-0.047-0.287-0.041-0.334 0.018-0.035 0.059-0.053 0.141-0.053 0.246s0 0.211 0 0.316c0.012 0.117-0.023 0.205-0.105 0.264-0.035 0.047-0.076 0.082-0.123 0.105-0.035 0.023-0.070 0.053-0.105 0.088-0.375 0.281-0.633 0.639-0.773 1.072-0.023 0.070-0.041 0.141-0.053 0.211s-0.029 0.146-0.053 0.229c-0.059 0.164-0.152 0.334-0.281 0.51s-0.27 0.357-0.422 0.545c-0.152 0.188-0.299 0.381-0.439 0.58-0.141 0.211-0.252 0.422-0.334 0.633-0.188-0.023-0.334-0.006-0.439 0.053-0.117 0.070-0.211 0.158-0.281 0.264-0.070 0.117-0.129 0.24-0.176 0.369s-0.105 0.24-0.176 0.334c-0.082 0.105-0.182 0.182-0.299 0.229-0.129 0.059-0.293 0.059-0.492 0l-0.791 0.721c-0.141-0.082-0.275-0.1-0.404-0.053-0.141 0.047-0.275 0.111-0.404 0.193-0.141 0.082-0.275 0.146-0.404 0.193-0.141 0.047-0.287 0.029-0.439-0.053-0.082 0.094-0.152 0.141-0.211 0.141-0.059 0.012-0.129-0.035-0.211-0.141l-0.264 0.281c-0.141-0.117-0.31-0.229-0.51-0.334-0.211-0.094-0.404-0.205-0.58-0.334-0.176-0.117-0.316-0.258-0.422-0.422-0.105-0.152-0.123-0.352-0.053-0.598-0.024-0.070-0.059-0.146-0.105-0.229-0.059-0.082-0.105-0.17-0.141-0.264-0.035-0.082-0.059-0.17-0.070-0.264-0.012-0.082 0.012-0.158 0.070-0.229-0.105-0.199-0.141-0.404-0.105-0.615 0.024-0.199 0.065-0.398 0.123-0.598s0.105-0.398 0.141-0.598c0.035-0.199 0-0.398-0.105-0.598 0.141-0.105 0.246-0.24 0.316-0.404 0.059-0.164 0.117-0.334 0.176-0.51 0.047-0.176 0.1-0.346 0.158-0.51s0.158-0.299 0.299-0.404l-0.018-0.281c0.551-0.586 1.137-1.125 1.758-1.617 0.609-0.48 1.301-0.838 2.074-1.072 0.152-0.27 0.352-0.469 0.598-0.598 0.246-0.117 0.498-0.229 0.756-0.334 0.246-0.094 0.475-0.217 0.686-0.369 0.211-0.141 0.369-0.369 0.475-0.686 0.059 0.129 0.117 0.182 0.176 0.158 0.059-0.012 0.117-0.041 0.176-0.088 0.070-0.035 0.135-0.064 0.193-0.088 0.059-0.012 0.117 0.041 0.176 0.158 0.117-0.352 0.305-0.633 0.563-0.844 0.27-0.211 0.563-0.398 0.879-0.563 0.328-0.152 0.656-0.305 0.984-0.457 0.328-0.141 0.615-0.316 0.861-0.527 0.258-0.211 0.451-0.469 0.58-0.773 0.129-0.316 0.158-0.721 0.088-1.213 0.105-0.070 0.176-0.158 0.211-0.264 0.035-0.117 0.059-0.234 0.070-0.351 0.023-0.117 0.053-0.223 0.088-0.316s0.111-0.158 0.229-0.193c-0.082-0.129-0.182-0.188-0.299-0.176s-0.24 0.047-0.369 0.105c-0.117 0.059-0.229 0.117-0.334 0.176s-0.193 0.070-0.264 0.035c-0.035 0.164-0.111 0.281-0.229 0.352-0.105 0.070-0.223 0.135-0.352 0.193-0.129 0.047-0.264 0.1-0.404 0.158s-0.252 0.152-0.334 0.281c-0.105-0.047-0.205-0.023-0.299 0.070-0.082 0.082-0.17 0.176-0.264 0.281-0.082 0.094-0.176 0.164-0.281 0.211s-0.229 0-0.369-0.141c-0.070 0.188-0.188 0.31-0.352 0.369-0.152 0.059-0.322 0.088-0.51 0.088s-0.381-0.012-0.58-0.035c-0.188-0.023-0.357-0.018-0.51 0.017l-0.299-0.299c-0.023 0.059-0.059 0.105-0.105 0.141-0.059 0.035-0.117 0.041-0.176 0.018-0.094-0.199-0.182-0.41-0.264-0.633-0.094-0.234-0.152-0.463-0.176-0.685-0.035-0.234-0.018-0.457 0.053-0.668 0.070-0.223 0.211-0.416 0.422-0.58 0.328-0.598 0.756-1.066 1.283-1.406 0.059 0.047 0.123 0.064 0.193 0.053 0.070-0.023 0.141-0.053 0.211-0.088 0.082-0.047 0.158-0.094 0.229-0.141 0.070-0.059 0.135-0.094 0.193-0.105 0.035-0.129 0.1-0.252 0.193-0.369 0.105-0.117 0.217-0.223 0.334-0.316 0.129-0.094 0.258-0.176 0.387-0.246 0.141-0.082 0.27-0.152 0.387-0.211 0.223-0.105 0.428-0.234 0.615-0.387 0.199-0.164 0.398-0.316 0.598-0.457 0.199-0.152 0.404-0.281 0.615-0.387s0.451-0.158 0.721-0.158l0.316 0.281c-0.199 0.117-0.375 0.264-0.527 0.439-0.141 0.164-0.287 0.334-0.439 0.51-0.152 0.164-0.316 0.316-0.492 0.457s-0.392 0.234-0.65 0.281c-0.211 0.41-0.498 0.762-0.861 1.055-0.352 0.281-0.715 0.545-1.090 0.791 0 0.176-0.053 0.316-0.158 0.422s-0.229 0.199-0.369 0.281c-0.141 0.082-0.281 0.158-0.422 0.229-0.141 0.059-0.258 0.141-0.352 0.246-0.082 0.094-0.123 0.217-0.123 0.369 0 0.141 0.076 0.328 0.229 0.563 0.141-0.070 0.311-0.117 0.51-0.141s0.393-0.053 0.58-0.088c0.188-0.047 0.352-0.111 0.492-0.193 0.152-0.094 0.258-0.234 0.316-0.422 0.164-0.141 0.34-0.229 0.527-0.264s0.381-0.041 0.58-0.018c0.387-0.422 0.773-0.809 1.16-1.16 0.398-0.363 0.773-0.732 1.125-1.107s0.674-0.773 0.967-1.195c0.305-0.434 0.568-0.932 0.791-1.494 0.234-0.070 0.445-0.041 0.633 0.088s0.322 0.293 0.404 0.492c-0.023 0.141-0.064 0.275-0.123 0.404-0.047 0.117-0.094 0.234-0.141 0.352-0.035 0.105-0.064 0.223-0.088 0.352-0.012 0.129 0.012 0.275 0.070 0.439-0.094-0.023-0.17 0.006-0.229 0.088-0.047 0.082-0.1 0.152-0.158 0.211 0.035 0.152 0.029 0.293-0.017 0.422-0.047 0.117-0.105 0.234-0.176 0.352-0.070 0.105-0.135 0.223-0.193 0.351-0.047 0.129-0.059 0.27-0.035 0.422-0.164 0.305-0.287 0.627-0.369 0.967-0.070 0.328-0.117 0.662-0.141 1.002l0.316 0.281c0.152-0.223 0.34-0.381 0.563-0.475 0.234-0.094 0.469-0.17 0.703-0.229 0.234-0.070 0.463-0.146 0.686-0.229 0.223-0.094 0.416-0.252 0.58-0.475 0.070-0.34 0.217-0.58 0.439-0.721 0.223-0.152 0.457-0.281 0.703-0.387s0.48-0.223 0.703-0.351c0.234-0.141 0.398-0.363 0.492-0.668h0.439c-0.023 0.059-0.012 0.111 0.035 0.158s0.088 0.088 0.123 0.123zM22.196 19.76c-0.117 0.070-0.246 0.135-0.387 0.193s-0.281 0.123-0.422 0.193-0.27 0.152-0.387 0.246c-0.117 0.094-0.205 0.211-0.264 0.352-0.129-0.070-0.252-0.076-0.369-0.017-0.105 0.070-0.211 0.146-0.316 0.229-0.105 0.094-0.217 0.17-0.334 0.229-0.105 0.059-0.223 0.053-0.352-0.018-0.223 0.141-0.434 0.293-0.633 0.457-0.211 0.164-0.422 0.322-0.633 0.475-0.211 0.164-0.428 0.311-0.65 0.439-0.234 0.141-0.48 0.246-0.738 0.316-0.129 0.211-0.299 0.375-0.51 0.492-0.211 0.129-0.422 0.252-0.633 0.369-0.223 0.117-0.422 0.258-0.598 0.422s-0.287 0.393-0.334 0.686c-0.363 0.234-0.609 0.533-0.738 0.896-0.141 0.375-0.217 0.767-0.229 1.178-0.012 0.422 0.006 0.844 0.053 1.266 0.047 0.434 0.070 0.826 0.070 1.178 0.152 0.176 0.305 0.299 0.457 0.369s0.31 0.105 0.475 0.105c0.164 0 0.334-0.023 0.51-0.070 0.164-0.035 0.346-0.070 0.545-0.105 0.047-0.176 0.135-0.293 0.264-0.352 0.117-0.047 0.246-0.082 0.387-0.105 0.129-0.023 0.252-0.059 0.369-0.105 0.105-0.035 0.164-0.129 0.176-0.281l0.158 0.141c0.012-0.188 0.064-0.346 0.158-0.475 0.094-0.117 0.205-0.229 0.334-0.334s0.27-0.205 0.422-0.299c0.141-0.094 0.264-0.199 0.369-0.316-0.023-0.223 0.018-0.41 0.123-0.563s0.223-0.293 0.352-0.422 0.246-0.27 0.352-0.422c0.094-0.152 0.129-0.346 0.105-0.58 0.117-0.047 0.199-0.123 0.246-0.229s0.094-0.205 0.141-0.299c0.047-0.094 0.105-0.164 0.176-0.211 0.082-0.047 0.205-0.035 0.369 0.035-0.164-0.129-0.234-0.229-0.211-0.299 0.035-0.070 0.094-0.135 0.176-0.193 0.082-0.047 0.158-0.105 0.229-0.176s0.070-0.176 0-0.316c0.281-0.117 0.463-0.287 0.545-0.51s0.141-0.463 0.176-0.721c0.047-0.246 0.111-0.492 0.193-0.738 0.082-0.234 0.264-0.422 0.545-0.563-0.023-0.211 0.012-0.398 0.105-0.563 0.105-0.152 0.205-0.299 0.299-0.439 0.105-0.141 0.176-0.287 0.211-0.439 0.047-0.152 0.006-0.334-0.123-0.545l-0.229 0.439zM42.851 11.48c0.047 0.176 0.029 0.328-0.053 0.457-0.082 0.117-0.193 0.223-0.334 0.316-0.129 0.094-0.275 0.182-0.44 0.264-0.152 0.070-0.281 0.152-0.387 0.246-0.527 0.117-1.008 0.205-1.441 0.264-0.422 0.047-0.891 0.111-1.406 0.193-0.152 0.023-0.299 0.023-0.439 0-0.129-0.035-0.264-0.047-0.404-0.035-0.082 0-0.158 0-0.228 0-0.070-0.012-0.141-0.012-0.211 0-0.27 0.024-0.445 0.117-0.527 0.281-0.082 0.152-0.152 0.334-0.211 0.545-0.047 0.199-0.111 0.393-0.193 0.58-0.070 0.176-0.228 0.299-0.475 0.369-0.023 0.059-0.018 0.111 0.018 0.158 0.047 0.047 0.082 0.088 0.105 0.123-0.199 0.059-0.334 0.164-0.404 0.316-0.059 0.152-0.111 0.305-0.158 0.457s-0.117 0.281-0.211 0.387c-0.082 0.105-0.246 0.141-0.492 0.105-0.363 0.387-0.791 0.697-1.283 0.932-0.492 0.246-1.002 0.404-1.529 0.475-0.094-0.047-0.188-0.105-0.281-0.176-0.082-0.070-0.17-0.135-0.264-0.193-0.082-0.059-0.176-0.105-0.281-0.141-0.094-0.023-0.205-0.023-0.334 0-0.012-0.246-0.059-0.475-0.141-0.686-0.094-0.211-0.211-0.41-0.352-0.598-0.023-0.211 0.006-0.404 0.088-0.58 0.070-0.188 0.146-0.369 0.229-0.545s0.152-0.352 0.211-0.527c0.047-0.188 0.035-0.399-0.035-0.633 0.117-0.070 0.193-0.152 0.229-0.246 0.047-0.094 0.076-0.188 0.088-0.281 0.023-0.105 0.053-0.199 0.088-0.281 0.035-0.094 0.117-0.17 0.246-0.229-0.094-0.281-0.082-0.486 0.035-0.615 0.129-0.141 0.281-0.264 0.457-0.369s0.34-0.223 0.492-0.352c0.152-0.129 0.211-0.322 0.176-0.58 0.070-0.070 0.152-0.129 0.246-0.176s0.182-0.088 0.264-0.123c0.094-0.047 0.182-0.094 0.264-0.141s0.158-0.111 0.229-0.193c-0.082-0.059-0.123-0.117-0.123-0.176 0.012-0.059 0.029-0.117 0.053-0.176 0.023-0.070 0.047-0.141 0.070-0.211 0.035-0.070 0.035-0.141 0-0.211 0.316 0.047 0.592 0.006 0.826-0.123 0.246-0.141 0.475-0.281 0.686-0.422 0.223-0.141 0.445-0.24 0.668-0.299s0.48 0.012 0.773 0.211c0.023 0.082 0.059 0.205 0.105 0.369 0.059 0.152 0.111 0.311 0.158 0.475 0.059 0.164 0.111 0.322 0.158 0.475s0.076 0.264 0.088 0.334c0 0.059 0 0.152 0 0.281s0 0.27 0 0.422c0 0.141 0 0.275 0 0.404s0 0.229 0 0.299c0.34 0.199 0.68 0.322 1.020 0.369 0.34 0.035 0.68-0.047 1.020-0.246 0.129 0.117 0.252 0.152 0.369 0.105 0.117-0.059 0.229-0.123 0.334-0.193 0.117-0.070 0.234-0.105 0.352-0.105 0.117-0.012 0.234 0.082 0.352 0.281 0.164-0.152 0.334-0.246 0.51-0.281 0.176-0.047 0.357-0.070 0.545-0.070 0.188-0.012 0.369-0.029 0.545-0.053 0.188-0.024 0.369-0.1 0.545-0.229zM36.101 11.779c0-0.176 0.029-0.363 0.088-0.563s0.105-0.393 0.141-0.58c0.035-0.199 0.029-0.387-0.018-0.563-0.035-0.176-0.147-0.334-0.334-0.475-0.129 0.070-0.234 0.17-0.316 0.299-0.082 0.117-0.164 0.24-0.246 0.369-0.082 0.117-0.182 0.217-0.299 0.299-0.105 0.082-0.246 0.105-0.422 0.070-0.059 0.141-0.059 0.258 0 0.352 0.059 0.082 0.129 0.164 0.211 0.246 0.082 0.070 0.158 0.146 0.228 0.229 0.082 0.082 0.111 0.188 0.088 0.316 0.047 0.035 0.111 0.070 0.193 0.105 0.082 0.023 0.164 0.041 0.246 0.053 0.094 0 0.182-0.012 0.264-0.035s0.141-0.064 0.176-0.123zM35.977 13.185c-0.234 0-0.439-0.053-0.615-0.158-0.164-0.117-0.334-0.246-0.51-0.387-0.164-0.141-0.34-0.27-0.527-0.387-0.176-0.129-0.393-0.205-0.65-0.229-0.105 0.141-0.228 0.275-0.369 0.404-0.141 0.117-0.264 0.246-0.369 0.387s-0.182 0.293-0.228 0.457c-0.035 0.164-0.006 0.352 0.088 0.563-0.27 0.129-0.451 0.316-0.545 0.563-0.094 0.234-0.158 0.492-0.193 0.774-0.023 0.281-0.047 0.563-0.070 0.844s-0.1 0.533-0.229 0.756l0.387-0.264c0.047 0.023 0.082 0.059 0.105 0.105 0.035 0.047 0.041 0.1 0.018 0.158 0.094-0.094 0.199-0.164 0.316-0.211 0.117-0.058 0.234-0.1 0.352-0.123 0.129-0.035 0.252-0.064 0.369-0.088 0.129-0.023 0.252-0.059 0.369-0.105 0.293 0.164 0.504 0.199 0.633 0.105s0.234-0.234 0.316-0.422c0.082-0.188 0.17-0.381 0.264-0.58 0.094-0.211 0.246-0.34 0.457-0.387l-0.123-0.123c0.199-0.246 0.375-0.498 0.527-0.756 0.164-0.27 0.24-0.568 0.228-0.896z"></path>
</symbol>
</defs>
</svg>
