<svg aria-hidden="true" style="position: absolute; width: 0; height: 0; overflow: hidden;" version="1.1" xmlns="http://www.w3.org/2000/svg" xmlns:xlink="http://www.w3.org/1999/xlink">
<defs>
<symbol id="icon-Logo-5" viewBox="0 0 35 32">
<path d="M9.61 14.947c0.010 0.146-0.020 0.287-0.088 0.424-0.058 0.136-0.112 0.258-0.161 0.366l-0.468 0.497-0.278 0.833c-0.107 0.078-0.224 0.156-0.351 0.234-0.117 0.068-0.224 0.141-0.322 0.219-0.107 0.088-0.205 0.185-0.292 0.292-0.078 0.107-0.166 0.2-0.263 0.278s-0.214 0.146-0.351 0.205c-0.127 0.049-0.244 0.107-0.351 0.175-0.195 0.117-0.38 0.239-0.556 0.366-0.166 0.127-0.341 0.248-0.526 0.365-0.049 0.019-0.088 0.044-0.117 0.073-0.019 0.019-0.054 0.039-0.102 0.058-0.029 0.019-0.156 0.058-0.38 0.117s-0.473 0.127-0.746 0.205c-0.263 0.068-0.512 0.132-0.746 0.19s-0.365 0.088-0.395 0.088c-0.175 0.020-0.356 0.029-0.541 0.029s-0.37 0.005-0.555 0.015l-0.219 0.132c-0.107-0.078-0.224-0.151-0.351-0.219s-0.234-0.141-0.322-0.219c-0.097-0.088-0.195-0.185-0.292-0.292-0.097-0.117-0.185-0.224-0.263-0.322-0.049-0.136-0.097-0.268-0.146-0.395-0.049-0.136-0.088-0.268-0.117-0.395l-0.073-0.556c-0.019-0.185-0.039-0.365-0.058-0.541-0.010-0.175-0.024-0.356-0.044-0.541 0.166-0.458 0.312-0.916 0.439-1.374 0.136-0.468 0.302-0.926 0.497-1.374 0.049-0.107 0.093-0.214 0.132-0.322 0.049-0.117 0.097-0.229 0.146-0.336 0.058-0.117 0.122-0.224 0.19-0.322 0.068-0.107 0.127-0.214 0.175-0.322 0.049-0.117 0.088-0.234 0.117-0.351 0.029-0.127 0.068-0.244 0.117-0.351 0.029-0.058 0.078-0.141 0.146-0.249 0.068-0.117 0.141-0.234 0.219-0.351 0.078-0.127 0.151-0.249 0.219-0.366 0.078-0.117 0.141-0.21 0.19-0.278 0.078-0.097 0.156-0.19 0.234-0.278s0.141-0.185 0.19-0.292c0.097-0.166 0.19-0.375 0.278-0.629s0.185-0.477 0.292-0.672c0.117-0.214 0.253-0.414 0.409-0.599 0.166-0.195 0.317-0.395 0.453-0.599 0.146-0.205 0.287-0.429 0.424-0.672l0.643-0.468 0.292 0.292 0.702-0.117 0.439 0.658c-0.019 0.146-0.044 0.312-0.073 0.497-0.019 0.185-0.039 0.375-0.058 0.57-0.010 0.185-0.019 0.37-0.029 0.556 0 0.175 0.010 0.331 0.029 0.468-0.049 0.175-0.122 0.361-0.219 0.555-0.088 0.185-0.19 0.346-0.307 0.482l-0.058 0.789-0.585 0.526-0.073 0.746-0.497 0.585c-0.029 0.136-0.058 0.278-0.088 0.424-0.029 0.136-0.068 0.268-0.117 0.395-0.049 0.117-0.107 0.239-0.175 0.366-0.068 0.117-0.136 0.239-0.205 0.365-0.195 0.166-0.395 0.351-0.599 0.556s-0.39 0.409-0.555 0.614c-0.088 0.107-0.171 0.224-0.248 0.351-0.068 0.117-0.141 0.229-0.219 0.336-0.253 0.322-0.526 0.624-0.819 0.906s-0.58 0.575-0.863 0.877l0.322 0.57c0.205 0.068 0.414 0.132 0.629 0.19s0.429 0.112 0.643 0.161c0.097-0.019 0.21-0.039 0.336-0.058 0.127-0.029 0.258-0.058 0.395-0.088 0.136-0.039 0.268-0.078 0.395-0.117 0.136-0.039 0.248-0.078 0.336-0.117 0.195-0.078 0.419-0.19 0.672-0.336 0.253-0.156 0.468-0.292 0.643-0.409 0.312-0.195 0.629-0.395 0.95-0.599s0.629-0.419 0.921-0.643c0.195-0.146 0.4-0.331 0.614-0.555s0.414-0.434 0.599-0.629c0.195-0.205 0.366-0.37 0.512-0.497 0.156-0.127 0.263-0.175 0.322-0.146zM5.633 8.033c-0.205 0.341-0.424 0.672-0.658 0.994-0.224 0.312-0.434 0.638-0.629 0.979-0.068 0.117-0.127 0.239-0.175 0.365-0.049 0.117-0.112 0.234-0.19 0.351-0.068 0.107-0.141 0.214-0.219 0.322s-0.146 0.224-0.205 0.351c-0.117 0.224-0.224 0.463-0.322 0.716-0.088 0.244-0.185 0.482-0.292 0.716-0.117 0.234-0.253 0.453-0.409 0.658s-0.297 0.424-0.424 0.658l-0.234 0.468c-0.019 0.049-0.039 0.088-0.058 0.117-0.019 0.019-0.039 0.054-0.058 0.102-0.039 0.107-0.058 0.224-0.058 0.351s-0.015 0.244-0.044 0.351c-0.029 0.117-0.073 0.229-0.132 0.336s-0.112 0.214-0.161 0.322c-0.049 0.107-0.088 0.219-0.117 0.336-0.029 0.107-0.063 0.214-0.102 0.322 0.078-0.078 0.161-0.146 0.248-0.205 0.097-0.068 0.19-0.141 0.278-0.219 0.088-0.088 0.171-0.18 0.248-0.278s0.166-0.185 0.263-0.263c0.088-0.078 0.18-0.146 0.278-0.205 0.107-0.068 0.21-0.136 0.307-0.205 0.156-0.214 0.292-0.434 0.409-0.658 0.058-0.107 0.107-0.229 0.146-0.366 0.049-0.136 0.107-0.258 0.175-0.365 0.058-0.107 0.132-0.21 0.219-0.307 0.097-0.097 0.18-0.2 0.248-0.307 0.078-0.107 0.141-0.219 0.19-0.336 0.058-0.117 0.122-0.229 0.19-0.336 0.136-0.214 0.287-0.419 0.453-0.614l0.073-0.921 0.526-0.614 0.073-0.556 0.365-0.512 0.044-0.819-0.248-0.731zM17.665 15.152c0.039 0.146 0.024 0.273-0.044 0.38-0.068 0.097-0.161 0.185-0.278 0.263-0.107 0.078-0.229 0.151-0.366 0.219-0.127 0.058-0.234 0.127-0.322 0.205-0.439 0.097-0.838 0.171-1.199 0.219-0.351 0.039-0.741 0.093-1.169 0.161-0.127 0.019-0.249 0.019-0.366 0-0.107-0.029-0.219-0.039-0.336-0.029-0.068 0-0.132 0-0.19 0-0.058-0.010-0.117-0.010-0.175 0-0.224 0.020-0.37 0.097-0.439 0.234-0.068 0.127-0.127 0.278-0.175 0.453-0.039 0.166-0.093 0.326-0.161 0.482-0.058 0.146-0.19 0.248-0.395 0.307-0.019 0.049-0.015 0.093 0.015 0.132 0.039 0.039 0.068 0.073 0.088 0.102-0.166 0.049-0.278 0.136-0.336 0.263-0.049 0.127-0.093 0.253-0.132 0.38s-0.097 0.234-0.175 0.322c-0.068 0.088-0.205 0.117-0.409 0.088-0.302 0.322-0.658 0.58-1.067 0.775-0.409 0.205-0.833 0.336-1.272 0.395-0.078-0.039-0.156-0.088-0.234-0.146-0.068-0.058-0.141-0.112-0.219-0.161-0.068-0.049-0.146-0.088-0.234-0.117-0.078-0.019-0.171-0.019-0.278 0-0.010-0.205-0.049-0.395-0.117-0.57-0.078-0.175-0.175-0.341-0.292-0.497-0.019-0.175 0.005-0.336 0.073-0.482 0.058-0.156 0.122-0.307 0.19-0.453s0.127-0.292 0.175-0.439c0.039-0.156 0.029-0.331-0.029-0.526 0.097-0.058 0.161-0.127 0.19-0.205 0.039-0.078 0.063-0.156 0.073-0.234 0.019-0.088 0.044-0.166 0.073-0.234 0.029-0.078 0.097-0.141 0.205-0.19-0.078-0.234-0.068-0.404 0.029-0.512 0.107-0.117 0.234-0.219 0.38-0.307s0.283-0.185 0.409-0.292c0.127-0.107 0.175-0.268 0.146-0.482 0.058-0.058 0.127-0.107 0.205-0.146s0.151-0.073 0.219-0.102c0.078-0.039 0.151-0.078 0.219-0.117s0.132-0.093 0.19-0.161c-0.068-0.049-0.102-0.097-0.102-0.146 0.010-0.049 0.024-0.097 0.044-0.146 0.019-0.058 0.039-0.117 0.058-0.175 0.029-0.058 0.029-0.117 0-0.175 0.263 0.039 0.492 0.005 0.687-0.102 0.205-0.117 0.395-0.234 0.57-0.351 0.185-0.117 0.37-0.2 0.556-0.248s0.4 0.010 0.643 0.175c0.019 0.068 0.049 0.171 0.088 0.307 0.049 0.127 0.093 0.258 0.132 0.395 0.049 0.136 0.093 0.268 0.132 0.395s0.063 0.219 0.073 0.278c0 0.049 0 0.127 0 0.234s0 0.224 0 0.351c0 0.117 0 0.229 0 0.336s0 0.19 0 0.248c0.283 0.166 0.565 0.268 0.848 0.307 0.283 0.029 0.565-0.039 0.848-0.205 0.107 0.097 0.21 0.127 0.307 0.088 0.097-0.049 0.19-0.102 0.278-0.161 0.097-0.058 0.195-0.088 0.292-0.088 0.097-0.010 0.195 0.068 0.292 0.234 0.136-0.127 0.278-0.205 0.424-0.234 0.146-0.039 0.297-0.058 0.453-0.058 0.156-0.010 0.307-0.024 0.453-0.044 0.156-0.020 0.307-0.083 0.453-0.19zM12.051 15.401c0-0.146 0.024-0.302 0.073-0.468s0.088-0.326 0.117-0.482c0.029-0.166 0.024-0.322-0.015-0.468-0.029-0.146-0.122-0.278-0.278-0.395-0.107 0.058-0.195 0.141-0.263 0.248-0.068 0.097-0.136 0.2-0.205 0.307-0.068 0.097-0.151 0.18-0.249 0.248-0.088 0.068-0.205 0.088-0.351 0.058-0.049 0.117-0.049 0.214 0 0.292 0.049 0.068 0.107 0.136 0.175 0.205 0.068 0.058 0.132 0.122 0.19 0.19 0.068 0.068 0.093 0.156 0.073 0.263 0.039 0.029 0.093 0.058 0.161 0.088 0.068 0.019 0.136 0.034 0.205 0.044 0.078 0 0.151-0.010 0.219-0.029s0.117-0.054 0.146-0.102zM11.949 16.57c-0.195 0-0.366-0.044-0.512-0.132-0.136-0.097-0.278-0.205-0.424-0.322-0.136-0.117-0.283-0.224-0.439-0.322-0.146-0.107-0.326-0.171-0.541-0.19-0.088 0.117-0.19 0.229-0.307 0.336-0.117 0.097-0.219 0.205-0.307 0.322s-0.151 0.244-0.19 0.38c-0.029 0.136-0.005 0.292 0.073 0.468-0.224 0.107-0.375 0.263-0.453 0.468-0.078 0.195-0.132 0.409-0.161 0.643-0.020 0.234-0.039 0.468-0.059 0.702s-0.083 0.443-0.19 0.629l0.322-0.219c0.039 0.019 0.068 0.049 0.088 0.088 0.029 0.039 0.034 0.083 0.015 0.132 0.078-0.078 0.166-0.136 0.263-0.175 0.097-0.049 0.195-0.083 0.292-0.102 0.107-0.029 0.21-0.054 0.307-0.073 0.107-0.019 0.21-0.049 0.307-0.088 0.244 0.136 0.419 0.166 0.526 0.088s0.195-0.195 0.263-0.351c0.068-0.156 0.141-0.317 0.219-0.482 0.078-0.175 0.205-0.283 0.38-0.322l-0.102-0.102c0.166-0.205 0.312-0.414 0.439-0.629 0.136-0.224 0.2-0.473 0.19-0.746zM26.304 15.561c-0.107 0.136-0.19 0.287-0.248 0.453s-0.132 0.322-0.219 0.468c-0.078 0.146-0.18 0.268-0.307 0.365-0.117 0.097-0.283 0.141-0.497 0.132-0.156 0.058-0.273 0.166-0.351 0.322-0.068 0.146-0.136 0.297-0.205 0.453-0.068 0.146-0.156 0.268-0.263 0.365-0.107 0.088-0.268 0.097-0.482 0.029-0.273 0.117-0.521 0.273-0.745 0.468-0.215 0.185-0.419 0.38-0.614 0.585-0.068 0.068-0.146 0.156-0.234 0.263-0.088 0.097-0.171 0.171-0.248 0.219-0.068 0.039-0.136 0.044-0.205 0.015s-0.132-0.058-0.19-0.088c-0.058-0.039-0.117-0.058-0.175-0.058-0.049 0-0.093 0.044-0.132 0.132 0.068 0.136 0.083 0.229 0.044 0.278-0.039 0.058-0.102 0.102-0.19 0.132s-0.18 0.054-0.278 0.073c-0.097 0.019-0.175 0.054-0.234 0.102-0.117 0.107-0.2 0.239-0.248 0.395s-0.093 0.312-0.132 0.468c-0.039 0.156-0.097 0.302-0.175 0.439-0.068 0.146-0.185 0.258-0.351 0.336 0.097 0.068 0.136 0.136 0.117 0.205-0.010 0.068-0.034 0.136-0.073 0.205-0.039 0.078-0.068 0.151-0.088 0.219-0.010 0.068 0.029 0.136 0.117 0.205-0.146 0.185-0.278 0.385-0.395 0.599-0.107 0.214-0.214 0.429-0.322 0.643-0.107 0.224-0.224 0.439-0.351 0.643-0.117 0.214-0.268 0.404-0.453 0.57l0.044 0.351c-0.146-0.039-0.239-0.034-0.278 0.015-0.029 0.049-0.044 0.117-0.044 0.205s0 0.175 0 0.263c0.010 0.097-0.020 0.171-0.088 0.219-0.029 0.039-0.063 0.068-0.102 0.088-0.029 0.020-0.059 0.044-0.088 0.073-0.312 0.234-0.526 0.531-0.643 0.892-0.019 0.058-0.034 0.117-0.044 0.175s-0.024 0.122-0.044 0.19c-0.049 0.136-0.127 0.278-0.234 0.424s-0.224 0.297-0.351 0.453c-0.127 0.156-0.249 0.317-0.366 0.482-0.117 0.175-0.21 0.351-0.278 0.526-0.156-0.019-0.278-0.005-0.365 0.044-0.097 0.058-0.175 0.132-0.234 0.219-0.058 0.097-0.107 0.2-0.146 0.307s-0.088 0.2-0.146 0.278c-0.068 0.088-0.151 0.151-0.249 0.19-0.107 0.049-0.244 0.049-0.409 0l-0.658 0.599c-0.117-0.068-0.229-0.083-0.336-0.044-0.117 0.039-0.229 0.093-0.336 0.161-0.117 0.068-0.229 0.122-0.336 0.161-0.117 0.039-0.239 0.024-0.365-0.044-0.068 0.078-0.127 0.117-0.175 0.117-0.049 0.010-0.107-0.029-0.175-0.117l-0.219 0.234c-0.117-0.097-0.258-0.19-0.424-0.278-0.175-0.078-0.336-0.171-0.482-0.278-0.146-0.097-0.263-0.214-0.351-0.351-0.088-0.127-0.102-0.292-0.044-0.497-0.020-0.058-0.049-0.122-0.088-0.19-0.049-0.068-0.088-0.141-0.117-0.219-0.029-0.068-0.049-0.141-0.058-0.219-0.010-0.068 0.010-0.132 0.058-0.19-0.088-0.166-0.117-0.336-0.088-0.512 0.020-0.166 0.054-0.331 0.102-0.497s0.088-0.331 0.117-0.497c0.029-0.166 0-0.331-0.088-0.497 0.117-0.088 0.205-0.2 0.263-0.336 0.049-0.136 0.097-0.278 0.146-0.424 0.039-0.146 0.083-0.288 0.132-0.424s0.132-0.249 0.248-0.336l-0.015-0.234c0.458-0.487 0.945-0.936 1.462-1.345 0.507-0.4 1.082-0.697 1.725-0.892 0.127-0.224 0.292-0.39 0.497-0.497 0.205-0.097 0.414-0.19 0.629-0.278 0.205-0.078 0.395-0.18 0.57-0.307 0.175-0.117 0.307-0.307 0.395-0.57 0.049 0.107 0.097 0.151 0.146 0.132 0.049-0.010 0.097-0.034 0.146-0.073 0.058-0.029 0.112-0.054 0.161-0.073 0.049-0.010 0.097 0.034 0.146 0.132 0.097-0.292 0.253-0.526 0.468-0.702 0.224-0.175 0.468-0.331 0.731-0.468 0.273-0.127 0.546-0.253 0.819-0.38 0.273-0.117 0.512-0.263 0.716-0.439 0.214-0.175 0.375-0.39 0.482-0.643 0.107-0.263 0.132-0.599 0.073-1.009 0.088-0.058 0.146-0.132 0.175-0.219 0.029-0.097 0.049-0.195 0.058-0.292 0.019-0.097 0.044-0.185 0.073-0.263s0.093-0.132 0.19-0.161c-0.068-0.107-0.151-0.156-0.248-0.146s-0.2 0.039-0.307 0.088c-0.097 0.049-0.19 0.097-0.278 0.146s-0.161 0.058-0.219 0.029c-0.029 0.136-0.093 0.234-0.19 0.292-0.088 0.058-0.185 0.112-0.292 0.161-0.107 0.039-0.219 0.083-0.336 0.132s-0.21 0.127-0.278 0.234c-0.088-0.039-0.171-0.019-0.248 0.058-0.068 0.068-0.141 0.146-0.219 0.234-0.068 0.078-0.146 0.136-0.234 0.175s-0.19 0-0.307-0.117c-0.058 0.156-0.156 0.258-0.292 0.307-0.127 0.049-0.268 0.073-0.424 0.073s-0.317-0.010-0.482-0.029c-0.156-0.020-0.297-0.015-0.424 0.015l-0.249-0.248c-0.019 0.049-0.049 0.088-0.088 0.117-0.049 0.029-0.097 0.034-0.146 0.015-0.078-0.166-0.151-0.341-0.219-0.526-0.078-0.195-0.127-0.385-0.146-0.57-0.029-0.195-0.015-0.38 0.044-0.556 0.058-0.185 0.175-0.346 0.351-0.482 0.273-0.497 0.629-0.887 1.067-1.169 0.049 0.039 0.102 0.054 0.161 0.044 0.058-0.019 0.117-0.044 0.175-0.073 0.068-0.039 0.132-0.078 0.19-0.117 0.059-0.049 0.112-0.078 0.161-0.088 0.029-0.107 0.083-0.21 0.161-0.307 0.088-0.097 0.18-0.185 0.278-0.263 0.107-0.078 0.215-0.146 0.322-0.205 0.117-0.068 0.224-0.127 0.322-0.175 0.185-0.088 0.356-0.195 0.512-0.322 0.166-0.136 0.331-0.263 0.497-0.38 0.166-0.127 0.336-0.234 0.512-0.322s0.375-0.132 0.599-0.132l0.263 0.234c-0.166 0.097-0.312 0.219-0.439 0.366-0.117 0.136-0.239 0.278-0.366 0.424-0.127 0.136-0.263 0.263-0.409 0.38s-0.326 0.195-0.541 0.234c-0.175 0.341-0.414 0.633-0.716 0.877-0.292 0.234-0.594 0.453-0.906 0.658 0 0.146-0.044 0.263-0.132 0.351s-0.19 0.166-0.307 0.234c-0.117 0.068-0.234 0.132-0.351 0.19-0.117 0.049-0.215 0.117-0.292 0.205-0.068 0.078-0.102 0.18-0.102 0.307 0 0.117 0.063 0.273 0.19 0.468 0.117-0.058 0.258-0.097 0.424-0.117s0.326-0.044 0.482-0.073c0.156-0.039 0.292-0.093 0.409-0.161 0.127-0.078 0.214-0.195 0.263-0.351 0.136-0.117 0.283-0.19 0.439-0.219s0.317-0.034 0.482-0.015c0.322-0.351 0.643-0.672 0.965-0.965 0.331-0.302 0.643-0.609 0.936-0.921s0.56-0.643 0.804-0.994c0.253-0.361 0.473-0.775 0.658-1.243 0.195-0.059 0.37-0.034 0.526 0.073s0.268 0.244 0.336 0.409c-0.019 0.117-0.054 0.229-0.102 0.336-0.039 0.097-0.078 0.195-0.117 0.292-0.029 0.088-0.054 0.185-0.073 0.292-0.010 0.107 0.010 0.229 0.058 0.365-0.078-0.019-0.141 0.005-0.19 0.073-0.039 0.068-0.083 0.127-0.132 0.175 0.029 0.127 0.024 0.244-0.015 0.351-0.039 0.097-0.088 0.195-0.146 0.292-0.058 0.088-0.112 0.185-0.161 0.292-0.039 0.107-0.049 0.224-0.029 0.351-0.136 0.253-0.239 0.521-0.307 0.804-0.058 0.273-0.097 0.551-0.117 0.833l0.263 0.234c0.127-0.185 0.283-0.317 0.468-0.395 0.195-0.078 0.39-0.141 0.585-0.19 0.195-0.058 0.385-0.122 0.57-0.19 0.185-0.078 0.346-0.21 0.482-0.395 0.059-0.283 0.18-0.482 0.366-0.599 0.185-0.127 0.38-0.234 0.585-0.322s0.4-0.185 0.585-0.292c0.195-0.117 0.331-0.302 0.409-0.556h0.366c-0.019 0.049-0.010 0.093 0.029 0.132s0.073 0.073 0.102 0.102zM18.22 22.038c-0.097 0.058-0.205 0.112-0.322 0.161s-0.234 0.102-0.351 0.161-0.224 0.127-0.322 0.205c-0.097 0.078-0.171 0.175-0.219 0.292-0.107-0.058-0.209-0.063-0.307-0.015-0.088 0.058-0.175 0.122-0.263 0.19-0.088 0.078-0.18 0.141-0.278 0.19-0.088 0.049-0.185 0.044-0.292-0.015-0.185 0.117-0.361 0.244-0.526 0.38-0.175 0.136-0.351 0.268-0.526 0.395-0.175 0.136-0.356 0.258-0.541 0.365-0.195 0.117-0.4 0.205-0.614 0.263-0.107 0.175-0.248 0.312-0.424 0.409-0.175 0.107-0.351 0.21-0.526 0.307-0.185 0.097-0.351 0.215-0.497 0.351s-0.239 0.326-0.278 0.57c-0.302 0.195-0.507 0.443-0.614 0.746-0.117 0.312-0.18 0.638-0.19 0.979-0.010 0.351 0.005 0.702 0.044 1.053 0.039 0.361 0.058 0.687 0.058 0.979 0.127 0.146 0.253 0.249 0.38 0.307s0.258 0.088 0.395 0.088c0.136 0 0.278-0.020 0.424-0.059 0.136-0.029 0.287-0.058 0.453-0.088 0.039-0.146 0.112-0.244 0.219-0.292 0.097-0.039 0.205-0.068 0.322-0.088 0.107-0.019 0.21-0.049 0.307-0.088 0.088-0.029 0.136-0.107 0.146-0.234l0.132 0.117c0.010-0.156 0.054-0.288 0.132-0.395 0.078-0.097 0.171-0.19 0.278-0.278s0.224-0.171 0.351-0.249c0.117-0.078 0.219-0.166 0.307-0.263-0.019-0.185 0.015-0.341 0.102-0.468s0.185-0.244 0.292-0.351 0.205-0.224 0.292-0.351c0.078-0.127 0.107-0.288 0.088-0.482 0.097-0.039 0.166-0.102 0.205-0.19s0.078-0.171 0.117-0.249c0.039-0.078 0.088-0.136 0.146-0.175 0.068-0.039 0.171-0.029 0.307 0.029-0.136-0.107-0.195-0.19-0.175-0.249 0.029-0.058 0.078-0.112 0.146-0.161 0.068-0.039 0.132-0.088 0.19-0.146s0.058-0.146 0-0.263c0.234-0.097 0.385-0.239 0.453-0.424s0.117-0.385 0.146-0.599c0.039-0.205 0.093-0.409 0.161-0.614 0.068-0.195 0.219-0.351 0.453-0.468-0.019-0.175 0.010-0.331 0.088-0.468 0.088-0.127 0.171-0.248 0.248-0.365 0.088-0.117 0.146-0.239 0.175-0.366 0.039-0.127 0.005-0.278-0.102-0.453l-0.19 0.366zM35.397 15.152c0.039 0.146 0.024 0.273-0.044 0.38-0.068 0.097-0.161 0.185-0.278 0.263-0.107 0.078-0.229 0.151-0.365 0.219-0.127 0.058-0.234 0.127-0.322 0.205-0.439 0.097-0.838 0.171-1.199 0.219-0.351 0.039-0.741 0.093-1.17 0.161-0.127 0.019-0.248 0.019-0.365 0-0.107-0.029-0.219-0.039-0.336-0.029-0.068 0-0.132 0-0.19 0-0.058-0.010-0.117-0.010-0.175 0-0.224 0.020-0.37 0.097-0.439 0.234-0.068 0.127-0.127 0.278-0.175 0.453-0.039 0.166-0.093 0.326-0.161 0.482-0.058 0.146-0.19 0.248-0.395 0.307-0.020 0.049-0.015 0.093 0.015 0.132 0.039 0.039 0.068 0.073 0.088 0.102-0.166 0.049-0.278 0.136-0.336 0.263-0.049 0.127-0.093 0.253-0.132 0.38s-0.097 0.234-0.175 0.322c-0.068 0.088-0.205 0.117-0.409 0.088-0.302 0.322-0.658 0.58-1.067 0.775-0.409 0.205-0.833 0.336-1.272 0.395-0.078-0.039-0.156-0.088-0.234-0.146-0.068-0.058-0.141-0.112-0.219-0.161-0.068-0.049-0.146-0.088-0.234-0.117-0.078-0.019-0.171-0.019-0.278 0-0.010-0.205-0.049-0.395-0.117-0.57-0.078-0.175-0.175-0.341-0.292-0.497-0.020-0.175 0.005-0.336 0.073-0.482 0.058-0.156 0.122-0.307 0.19-0.453s0.127-0.292 0.175-0.439c0.039-0.156 0.029-0.331-0.029-0.526 0.097-0.058 0.161-0.127 0.19-0.205 0.039-0.078 0.063-0.156 0.073-0.234 0.019-0.088 0.044-0.166 0.073-0.234 0.029-0.078 0.097-0.141 0.205-0.19-0.078-0.234-0.068-0.404 0.029-0.512 0.107-0.117 0.234-0.219 0.38-0.307s0.283-0.185 0.409-0.292c0.127-0.107 0.175-0.268 0.146-0.482 0.058-0.058 0.127-0.107 0.205-0.146s0.151-0.073 0.219-0.102c0.078-0.039 0.151-0.078 0.219-0.117s0.132-0.093 0.19-0.161c-0.068-0.049-0.102-0.097-0.102-0.146 0.010-0.049 0.024-0.097 0.044-0.146 0.020-0.058 0.039-0.117 0.059-0.175 0.029-0.058 0.029-0.117 0-0.175 0.263 0.039 0.492 0.005 0.687-0.102 0.205-0.117 0.395-0.234 0.57-0.351 0.185-0.117 0.37-0.2 0.555-0.248s0.4 0.010 0.643 0.175c0.019 0.068 0.049 0.171 0.088 0.307 0.049 0.127 0.093 0.258 0.132 0.395 0.049 0.136 0.093 0.268 0.132 0.395s0.063 0.219 0.073 0.278c0 0.049 0 0.127 0 0.234s0 0.224 0 0.351c0 0.117 0 0.229 0 0.336s0 0.19 0 0.248c0.283 0.166 0.565 0.268 0.848 0.307 0.283 0.029 0.565-0.039 0.848-0.205 0.107 0.097 0.21 0.127 0.307 0.088 0.097-0.049 0.19-0.102 0.278-0.161 0.097-0.058 0.195-0.088 0.292-0.088 0.097-0.010 0.195 0.068 0.292 0.234 0.136-0.127 0.278-0.205 0.424-0.234 0.146-0.039 0.297-0.058 0.453-0.058 0.156-0.010 0.307-0.024 0.453-0.044 0.156-0.020 0.307-0.083 0.453-0.19zM29.783 15.401c0-0.146 0.024-0.302 0.073-0.468s0.088-0.326 0.117-0.482c0.029-0.166 0.024-0.322-0.015-0.468-0.029-0.146-0.122-0.278-0.278-0.395-0.107 0.058-0.195 0.141-0.263 0.248-0.068 0.097-0.136 0.2-0.205 0.307-0.068 0.097-0.151 0.18-0.248 0.248-0.088 0.068-0.205 0.088-0.351 0.058-0.049 0.117-0.049 0.214 0 0.292 0.049 0.068 0.107 0.136 0.175 0.205 0.068 0.058 0.132 0.122 0.19 0.19 0.068 0.068 0.093 0.156 0.073 0.263 0.039 0.029 0.093 0.058 0.161 0.088 0.068 0.019 0.136 0.034 0.205 0.044 0.078 0 0.151-0.010 0.219-0.029s0.117-0.054 0.146-0.102zM29.681 16.57c-0.195 0-0.365-0.044-0.512-0.132-0.136-0.097-0.278-0.205-0.424-0.322-0.136-0.117-0.283-0.224-0.439-0.322-0.146-0.107-0.326-0.171-0.541-0.19-0.088 0.117-0.19 0.229-0.307 0.336-0.117 0.097-0.219 0.205-0.307 0.322s-0.151 0.244-0.19 0.38c-0.029 0.136-0.005 0.292 0.073 0.468-0.224 0.107-0.375 0.263-0.453 0.468-0.078 0.195-0.132 0.409-0.161 0.643-0.019 0.234-0.039 0.468-0.058 0.702s-0.083 0.443-0.19 0.629l0.322-0.219c0.039 0.019 0.068 0.049 0.088 0.088 0.029 0.039 0.034 0.083 0.015 0.132 0.078-0.078 0.166-0.136 0.263-0.175 0.097-0.049 0.195-0.083 0.292-0.102 0.107-0.029 0.21-0.054 0.307-0.073 0.107-0.019 0.209-0.049 0.307-0.088 0.244 0.136 0.419 0.166 0.526 0.088s0.195-0.195 0.263-0.351c0.068-0.156 0.141-0.317 0.219-0.482 0.078-0.175 0.205-0.283 0.38-0.322l-0.102-0.102c0.166-0.205 0.312-0.414 0.439-0.629 0.136-0.224 0.2-0.473 0.19-0.746z"></path>
</symbol>
</defs>
</svg>
